<svg width="430" height="129" viewBox="0 0 430 129" fill="none" xmlns="http://www.w3.org/2000/svg">
<g opacity="0.25">
<path d="M429 40C429 42.2811 427.465 44.7174 424.023 47.2566C420.607 49.7764 415.505 52.249 408.839 54.628C395.519 59.3816 376.188 63.6798 352.234 67.2955C304.342 74.5245 238.144 79 165 79C91.8562 79 25.6585 74.5245 -22.234 67.2955C-46.188 63.6798 -65.5186 59.3816 -78.8389 54.628C-85.5051 52.249 -90.6065 49.7764 -94.0225 47.2566C-97.4649 44.7174 -99 42.2811 -99 40C-99 37.7189 -97.4649 35.2826 -94.0225 32.7434C-90.6065 30.2236 -85.5051 27.751 -78.8389 25.372C-65.5186 20.6184 -46.188 16.3202 -22.234 12.7045C25.6585 5.47547 91.8562 1 165 1C238.144 1 304.342 5.47547 352.234 12.7045C376.188 16.3202 395.519 20.6184 408.839 25.372C415.505 27.751 420.607 30.2236 424.023 32.7434C427.465 35.2826 429 37.7189 429 40Z" stroke="white" stroke-width="2"/>
<path d="M429 52C429 54.2811 427.465 56.7174 424.023 59.2566C420.607 61.7764 415.505 64.249 408.839 66.628C395.519 71.3816 376.188 75.6798 352.234 79.2955C304.342 86.5245 238.144 91 165 91C91.8562 91 25.6585 86.5245 -22.234 79.2955C-46.188 75.6798 -65.5186 71.3816 -78.8389 66.628C-85.5051 64.249 -90.6065 61.7764 -94.0225 59.2566C-97.4649 56.7174 -99 54.2811 -99 52C-99 49.7189 -97.4649 47.2826 -94.0225 44.7434C-90.6065 42.2236 -85.5051 39.751 -78.8389 37.372C-65.5186 32.6184 -46.188 28.3202 -22.234 24.7045C25.6585 17.4755 91.8562 13 165 13C238.144 13 304.342 17.4755 352.234 24.7045C376.188 28.3202 395.519 32.6184 408.839 37.372C415.505 39.751 420.607 42.2236 424.023 44.7434C427.465 47.2826 429 49.7189 429 52Z" stroke="white" stroke-width="2"/>
<path d="M429 65C429 67.2811 427.465 69.7174 424.023 72.2566C420.607 74.7764 415.505 77.249 408.839 79.628C395.519 84.3816 376.188 88.6798 352.234 92.2955C304.342 99.5245 238.144 104 165 104C91.8562 104 25.6585 99.5245 -22.234 92.2955C-46.188 88.6798 -65.5186 84.3816 -78.8389 79.628C-85.5051 77.249 -90.6065 74.7764 -94.0225 72.2566C-97.4649 69.7174 -99 67.2811 -99 65C-99 62.7189 -97.4649 60.2826 -94.0225 57.7434C-90.6065 55.2236 -85.5051 52.751 -78.8389 50.372C-65.5186 45.6184 -46.188 41.3202 -22.234 37.7045C25.6585 30.4755 91.8562 26 165 26C238.144 26 304.342 30.4755 352.234 37.7045C376.188 41.3202 395.519 45.6184 408.839 50.372C415.505 52.751 420.607 55.2236 424.023 57.7434C427.465 60.2826 429 62.7189 429 65Z" stroke="white" stroke-width="2"/>
<path d="M429 77C429 79.2811 427.465 81.7174 424.023 84.2566C420.607 86.7764 415.505 89.249 408.839 91.628C395.519 96.3816 376.188 100.68 352.234 104.295C304.342 111.525 238.144 116 165 116C91.8562 116 25.6585 111.525 -22.234 104.295C-46.188 100.68 -65.5186 96.3816 -78.8389 91.628C-85.5051 89.249 -90.6065 86.7764 -94.0225 84.2566C-97.4649 81.7174 -99 79.2811 -99 77C-99 74.7189 -97.4649 72.2826 -94.0225 69.7434C-90.6065 67.2236 -85.5051 64.751 -78.8389 62.372C-65.5186 57.6184 -46.188 53.3202 -22.234 49.7045C25.6585 42.4755 91.8562 38 165 38C238.144 38 304.342 42.4755 352.234 49.7045C376.188 53.3202 395.519 57.6184 408.839 62.372C415.505 64.751 420.607 67.2236 424.023 69.7434C427.465 72.2826 429 74.7189 429 77Z" stroke="white" stroke-width="2"/>
<path d="M429 89C429 91.2811 427.465 93.7174 424.023 96.2566C420.607 98.7764 415.505 101.249 408.839 103.628C395.519 108.382 376.188 112.68 352.234 116.295C304.342 123.525 238.144 128 165 128C91.8562 128 25.6585 123.525 -22.234 116.295C-46.188 112.68 -65.5186 108.382 -78.8389 103.628C-85.5051 101.249 -90.6065 98.7764 -94.0225 96.2566C-97.4649 93.7174 -99 91.2811 -99 89C-99 86.7189 -97.4649 84.2826 -94.0225 81.7434C-90.6065 79.2236 -85.5051 76.751 -78.8389 74.372C-65.5186 69.6184 -46.188 65.3202 -22.234 61.7045C25.6585 54.4755 91.8562 50 165 50C238.144 50 304.342 54.4755 352.234 61.7045C376.188 65.3202 395.519 69.6184 408.839 74.372C415.505 76.751 420.607 79.2236 424.023 81.7434C427.465 84.2826 429 86.7189 429 89Z" stroke="white" stroke-width="2"/>
</g>
</svg>
